<svg xmlns="http://www.w3.org/2000/svg" xmlns:xlink="http://www.w3.org/1999/xlink" width="510" height="360"><defs><path id="b" d="M0 5a5 5 0 015-5h431a5 5 0 015 5v345H0V5z"/><path id="d" d="M5 0h290a5 5 0 015 5v134a5 5 0 01-5 5H5a5 5 0 01-5-5V5a5 5 0 015-5z"/><path id="e" d="M32 0a32 32 0 100 64 32 32 0 000-64m0 4a28 28 0 110 56 28 28 0 010-56"/><filter id="a" width="104.3%" height="105.4%" x="-2.2%" y="-1.6%" filterUnits="objectBoundingBox"><feOffset dy="4" in="SourceAlpha" result="shadowOffsetOuter1"/><feGaussianBlur in="shadowOffsetOuter1" result="shadowBlurOuter1" stdDeviation="2.5"/><feComposite in="shadowBlurOuter1" in2="SourceAlpha" operator="out" result="shadowBlurOuter1"/><feColorMatrix in="shadowBlurOuter1" values="0 0 0 0 0 0 0 0 0 0 0 0 0 0 0 0 0 0 0.04 0"/></filter><filter id="c" width="106.3%" height="113.2%" x="-3.2%" y="-3.8%" filterUnits="objectBoundingBox"><feOffset dy="4" in="SourceAlpha" result="shadowOffsetOuter1"/><feGaussianBlur in="shadowOffsetOuter1" result="shadowBlurOuter1" stdDeviation="2.5"/><feComposite in="shadowBlurOuter1" in2="SourceAlpha" operator="out" result="shadowBlurOuter1"/><feColorMatrix in="shadowBlurOuter1" values="0 0 0 0 0 0 0 0 0 0 0 0 0 0 0 0 0 0 0.04 0"/></filter></defs><g fill="none" fill-rule="evenodd" transform="translate(5 1)"><use fill="#000" filter="url(#a)" xlink:href="#b"/><path fill="#FFF" stroke="#E9EFF2" stroke-linejoin="square" stroke-width="1.137" d="M.57 349.43h439.86V5a4.42 4.42 0 00-4.42-4.43H4.99A4.43 4.43 0 00.57 5v344.43z"/><path fill="#515A67" fill-rule="nonzero" d="M58.75 31.65v4.03h2.45c1.36 0 2.13-.74 2.13-2.02 0-1.25-.82-2.01-2.17-2.01h-2.4zm0 5.43v4.3H57v-11.2h4.37c2.32 0 3.77 1.34 3.77 3.43 0 1.51-.82 2.74-2.2 3.2l2.53 4.58h-2.01l-2.3-4.31h-2.4zM69.5 40.2c1.18 0 2.1-.8 2.1-1.87v-.64l-2.03.12c-1 .07-1.57.51-1.57 1.21 0 .72.59 1.18 1.5 1.18zm-.47 1.33c-1.61 0-2.74-1-2.74-2.46 0-1.43 1.1-2.3 3.06-2.42l2.25-.13v-.63c0-.9-.62-1.45-1.65-1.45-.98 0-1.59.47-1.74 1.2h-1.59c.1-1.48 1.36-2.57 3.4-2.57 1.98 0 3.26 1.05 3.26 2.7v5.62h-1.62v-1.34h-.04a2.94 2.94 0 01-2.6 1.48zm10.16-8.44c2.1 0 3.47 1.63 3.47 4.22 0 2.58-1.37 4.22-3.43 4.22a2.8 2.8 0 01-2.6-1.48h-.03v4.04h-1.69V33.22h1.64v1.4h.03a2.85 2.85 0 012.61-1.53zm-.44 7.02c1.34 0 2.17-1.09 2.17-2.8 0-1.71-.83-2.8-2.17-2.8-1.29 0-2.16 1.11-2.16 2.8 0 1.7.86 2.8 2.16 2.8zm8.74 1.43c-2.36 0-3.9-1.6-3.9-4.23 0-2.63 1.55-4.24 3.9-4.24 2.34 0 3.9 1.61 3.9 4.24s-1.55 4.23-3.9 4.23zm0-1.38c1.33 0 2.18-1.04 2.18-2.85s-.86-2.85-2.18-2.85c-1.32 0-2.18 1.04-2.18 2.85s.86 2.85 2.18 2.85zm5.2 1.23v-8.17h1.61v1.4h.04c.27-.96 1-1.53 1.98-1.53.24 0 .45.04.58.06v1.56c-.14-.05-.43-.1-.76-.1-1.09 0-1.76.73-1.76 1.89v4.89h-1.69zM106.27 30c3.24 0 5.28 2.23 5.28 5.8 0 3.56-2.04 5.78-5.28 5.78-3.25 0-5.29-2.22-5.29-5.79 0-3.56 2.04-5.79 5.29-5.79zm0 1.53c-2.14 0-3.5 1.65-3.5 4.26s1.36 4.26 3.5 4.26c2.14 0 3.48-1.65 3.48-4.26s-1.34-4.26-3.48-4.26zm6.8 9.86v-11.2h1.7v11.2h-1.7zm10.48-8.17v8.17h-1.62V40h-.04c-.45.98-1.3 1.53-2.55 1.53-1.79 0-2.88-1.16-2.88-3.03v-5.29h1.69v4.96c0 1.24.59 1.91 1.75 1.91 1.22 0 1.96-.84 1.96-2.1v-4.77h1.69zm4.42 3.27l1.38.32c1.66.4 2.28 1.02 2.28 2.22 0 1.33-1.12 2.3-2.8 2.48l-.37.83c.97.01 1.6.46 1.6 1.25 0 .91-.79 1.4-1.86 1.4-.46.02-.95-.04-1.15-.1v-.85c.17.04.61.1.93.1.63 0 .95-.18.95-.51 0-.35-.32-.48-1.08-.48h-.52v-.61l.42-1.02c-1.68-.15-2.77-1.1-2.9-2.48h1.67c.14.79.75 1.22 1.78 1.22 1.01 0 1.64-.42 1.64-1.08 0-.52-.31-.8-1.17-1.02l-1.47-.36c-1.49-.35-2.24-1.12-2.24-2.26 0-1.46 1.3-2.47 3.22-2.47 1.83 0 3.11 1.02 3.17 2.47h-1.59c-.08-.73-.68-1.2-1.63-1.2-.91 0-1.52.45-1.52 1.1 0 .5.4.84 1.26 1.05zm5.47-5.2h1.7v1.93h1.56v1.33h-1.56v4.5c0 .7.3 1.03 1 1.03.17 0 .44-.02.55-.04v1.33c-.19.04-.56.07-.94.07-1.66 0-2.31-.63-2.31-2.2v-4.7h-1.2v-1.32h1.2V31.3zm11.7 1.93v8.17h-1.63V40h-.04c-.45.98-1.29 1.53-2.54 1.53-1.8 0-2.89-1.16-2.89-3.03v-5.29h1.7v4.96c0 1.24.58 1.91 1.75 1.91 1.22 0 1.95-.84 1.95-2.1v-4.77h1.7zm1.66 8.17v-8.17h1.6v1.4h.04c.28-.96 1.01-1.53 1.98-1.53.24 0 .45.04.58.06v1.56c-.13-.05-.43-.1-.76-.1-1.08 0-1.76.73-1.76 1.89v4.89h-1.68z"/><path fill="#F5F5F5" d="M30 99a3 3 0 013-3h174a3 3 0 013 3v40a3 3 0 01-3 3H33a3 3 0 01-3-3V99z"/><path fill="#E9E9E9" fill-rule="nonzero" d="M44 113h70v12H44z" opacity=".7"/><path fill="#F5F5F5" d="M230 99a3 3 0 013-3h174a3 3 0 013 3v40a3 3 0 01-3 3H233a3 3 0 01-3-3V99z"/><path d="M384 111h16v16h-16z"/><path fill="#515A67" fill-rule="nonzero" d="M391.22 125h1.56a1 1 0 100-2h-1.56a1 1 0 100 2zM384 114a1 1 0 001 1h14a1 1 0 100-2h-14a1 1 0 00-1 1zm3.67 6h8.66a1 1 0 100-2h-8.66a1 1 0 100 2z"/><path fill="#F5F5F5" d="M30 277a3 3 0 013-3h174a3 3 0 013 3v40a3 3 0 01-3 3H33a3 3 0 01-3-3v-40z"/><path fill="#515A67" fill-rule="nonzero" d="M253.15 120.07v-1.1h1.1c1 0 1.67-.6 1.67-1.45 0-.83-.58-1.38-1.67-1.38-.99 0-1.65.56-1.73 1.44h-1.34c.11-1.57 1.32-2.58 3.14-2.58 1.73 0 2.99.96 2.99 2.34 0 1.11-.75 1.91-1.88 2.11v.03c1.37.09 2.26.92 2.26 2.17 0 1.56-1.45 2.63-3.36 2.63-1.97 0-3.24-1.06-3.33-2.6h1.36c.1.85.82 1.44 1.97 1.44 1.12 0 1.91-.62 1.91-1.5 0-.96-.74-1.55-1.95-1.55h-1.14zm11.59-1.25l1 .24c1.88.44 2.66 1.17 2.66 2.48 0 1.55-1.16 2.56-3.04 2.7l-.28.64c.78 0 1.3.36 1.3 1 0 .72-.64 1.1-1.52 1.12-.37 0-.76-.04-.93-.09v-.67c.14.03.5.07.76.07.5 0 .77-.14.77-.4 0-.28-.26-.39-.88-.39h-.42v-.49l.33-.78c-1.82-.12-3.03-1.11-3.1-2.63h1.4c.1.89.98 1.47 2.18 1.47 1.15 0 1.99-.58 1.99-1.38 0-.7-.5-1.11-1.7-1.4l-1.18-.27c-1.68-.4-2.46-1.17-2.46-2.42 0-1.54 1.38-2.6 3.33-2.6 1.94 0 3.26 1.06 3.3 2.6h-1.38c-.08-.89-.83-1.43-1.94-1.43-1.1 0-1.86.55-1.86 1.34 0 .63.49 1 1.67 1.29zm10.5-1.23v6.53h-1.32v-1.1h-.03c-.37.77-1.05 1.21-2.07 1.21-1.45 0-2.34-.92-2.34-2.41v-4.23h1.37v3.96c0 1 .48 1.53 1.43 1.53.98 0 1.58-.67 1.58-1.69v-3.8h1.37zm4.9 6.64c-.98 0-1.74-.47-2.15-1.22h-.03v1.1h-1.33v-8.94H278v3.53h.03a2.3 2.3 0 012.1-1.21c1.69 0 2.79 1.3 2.79 3.36 0 2.08-1.1 3.38-2.79 3.38zm-.38-5.61c-1.04 0-1.76.89-1.76 2.23 0 1.36.72 2.24 1.76 2.24 1.08 0 1.75-.85 1.75-2.24 0-1.37-.67-2.23-1.75-2.23zm7.01-.07c-.96 0-1.63.72-1.7 1.7h3.34c-.03-1-.68-1.7-1.64-1.7zm1.63 3.65h1.3c-.19 1.19-1.34 2.04-2.87 2.04-1.96 0-3.15-1.3-3.15-3.36 0-2.04 1.2-3.4 3.1-3.4 1.84 0 3 1.27 3 3.25v.46h-4.71v.08c0 1.13.7 1.88 1.8 1.88.77 0 1.35-.38 1.53-.95zm7.42 1.92v-7.58h-.04l-2.39 1.67v-1.37l2.41-1.67h1.4v8.95h-1.38zm3.53-6.33c0-1.61 1.33-2.79 3.15-2.79 1.74 0 3.04 1.09 3.04 2.5 0 1.05-.57 1.82-1.9 3.16l-2.3 2.25v.03h4.35v1.18h-6.26v-.95l3.3-3.29c1.12-1.13 1.41-1.6 1.41-2.3 0-.8-.73-1.43-1.69-1.43-1 0-1.75.7-1.75 1.63v.02h-1.35zm10.37-2.62h3.22c2.72 0 4.33 1.63 4.33 4.46 0 2.82-1.6 4.49-4.33 4.49h-3.22v-8.95zm1.42 1.2v6.54h1.67c1.94 0 3.01-1.16 3.01-3.27 0-2.11-1.08-3.28-3.01-3.28h-1.67zm10.11 2.18c-.96 0-1.63.72-1.7 1.7h3.34c-.03-1-.68-1.7-1.64-1.7zm1.63 3.65h1.3c-.19 1.19-1.34 2.04-2.87 2.04-1.96 0-3.15-1.3-3.15-3.36 0-2.04 1.2-3.4 3.1-3.4 1.84 0 3 1.27 3 3.25v.46h-4.71v.08c0 1.13.7 1.88 1.79 1.88.78 0 1.36-.38 1.54-.95zm5.91-4.71c1.7 0 2.81 1.3 2.81 3.36 0 2.07-1.1 3.38-2.78 3.38-.96 0-1.72-.46-2.1-1.19h-.03v3.23h-1.37v-8.68h1.32v1.12h.03a2.32 2.32 0 012.12-1.22zm-.36 5.6c1.08 0 1.76-.87 1.76-2.24 0-1.36-.68-2.23-1.76-2.23-1.05 0-1.75.89-1.75 2.23 0 1.36.7 2.24 1.75 2.24zm6.56.08c.95 0 1.7-.65 1.7-1.5v-.51l-1.64.1c-.82.05-1.28.4-1.28.96 0 .57.48.95 1.22.95zm-.38 1.06c-1.31 0-2.22-.8-2.22-1.97 0-1.14.9-1.84 2.48-1.93l1.82-.1v-.5c0-.73-.5-1.16-1.34-1.16-.79 0-1.28.37-1.4.95h-1.3c.08-1.18 1.1-2.05 2.76-2.05 1.61 0 2.65.84 2.65 2.15v4.5h-1.32v-1.08h-.03a2.4 2.4 0 01-2.1 1.19zm4.77-.11v-6.53h1.3v1.11h.04a1.6 1.6 0 011.6-1.21c.2 0 .37.03.47.05v1.24a2 2 0 00-.61-.07c-.88 0-1.43.58-1.43 1.5v3.9h-1.37zm4.66-8.07h1.38v1.54h1.27v1.06h-1.27v3.6c0 .56.25.82.81.82.14 0 .36-.01.45-.03v1.06c-.15.03-.46.06-.76.06-1.35 0-1.88-.5-1.88-1.76v-3.75h-.97v-1.06h.97v-1.54zm3.77 8.07v-6.53h1.3v1.1h.04c.3-.73 1-1.21 1.9-1.21.92 0 1.6.47 1.86 1.28h.03a2.18 2.18 0 012.08-1.28c1.32 0 2.18.86 2.18 2.15v4.49h-1.38v-4.17c0-.84-.46-1.32-1.27-1.32s-1.38.59-1.38 1.41v4.08h-1.34v-4.26c0-.75-.49-1.23-1.26-1.23-.81 0-1.4.62-1.4 1.46v4.03h-1.36zm13.04-.95c.96 0 1.7-.65 1.7-1.5v-.51l-1.63.1c-.82.05-1.28.4-1.28.96 0 .57.48.95 1.21.95zm-.38 1.06c-1.3 0-2.22-.8-2.22-1.97 0-1.14.9-1.84 2.48-1.93l1.83-.1v-.5c0-.73-.5-1.16-1.34-1.16-.8 0-1.29.37-1.4.95h-1.3c.08-1.18 1.1-2.05 2.75-2.05 1.62 0 2.65.84 2.65 2.15v4.5h-1.31v-1.08h-.03a2.4 2.4 0 01-2.1 1.19zm4.78-.11v-6.53h1.3v1.1h.04c.36-.75 1.07-1.21 2.1-1.21 1.47 0 2.31.92 2.31 2.41v4.23h-1.38v-3.97c0-.98-.47-1.52-1.42-1.52-.96 0-1.58.67-1.58 1.68v3.8h-1.37z"/><path d="M175 289h16v16h-16z"/><path fill="#515A67" fill-rule="nonzero" d="M179.2 294.36a1.33 1.33 0 00-1.82 0 1.2 1.2 0 000 1.75l4.7 4.53c.51.48 1.33.48 1.83 0l4.71-4.53c.5-.48.5-1.27 0-1.75a1.33 1.33 0 00-1.82 0l-3.8 3.65-3.8-3.65z"/><path d="M175 111h16v16h-16z"/><path fill="#515A67" fill-rule="nonzero" d="M179.2 116.36a1.33 1.33 0 00-1.82 0 1.2 1.2 0 000 1.75l4.7 4.53c.51.48 1.33.48 1.83 0l4.71-4.53c.5-.48.5-1.27 0-1.75a1.33 1.33 0 00-1.82 0l-3.8 3.65-3.8-3.65z"/><path fill="#999" fill-rule="nonzero" d="M32.15 76.98v3.4h2.2c1.18 0 1.85-.61 1.85-1.7 0-1.06-.71-1.7-1.9-1.7h-2.15zm0 4.38v3.5H31V76h3.45c1.78 0 2.94 1.04 2.94 2.64 0 1.24-.7 2.2-1.85 2.55l2.13 3.68h-1.35l-1.97-3.51h-2.2zm8.7 2.7c1.04 0 1.85-.7 1.85-1.62v-.52l-1.78.1c-.89.06-1.4.44-1.4 1.04 0 .6.53 1 1.33 1zm-.25.92c-1.32 0-2.21-.77-2.21-1.92 0-1.1.87-1.78 2.4-1.87l1.9-.1v-.54c0-.78-.53-1.24-1.45-1.24-.85 0-1.39.38-1.53 1.01h-1.07c.08-1.1 1.06-1.95 2.63-1.95 1.56 0 2.54.8 2.54 2.08v4.42h-1.05v-1.1h-.03a2.44 2.44 0 01-2.13 1.2zm7.84-6.61c1.7 0 2.84 1.3 2.84 3.3 0 2-1.14 3.3-2.81 3.3-.95 0-1.72-.44-2.12-1.14h-.02V87h-1.11v-8.52h1.05v1.08h.03a2.4 2.4 0 012.14-1.2zm-.22 5.67c1.19 0 1.93-.92 1.93-2.37 0-1.44-.74-2.36-1.93-2.36-1.13 0-1.9.94-1.9 2.36 0 1.43.77 2.37 1.9 2.37zm6.93.94c-1.84 0-3.08-1.27-3.08-3.3 0-2.05 1.24-3.31 3.08-3.31 1.83 0 3.07 1.26 3.07 3.3s-1.24 3.3-3.07 3.3zm0-.94c1.17 0 1.94-.86 1.94-2.37 0-1.5-.77-2.36-1.94-2.36-1.18 0-1.95.86-1.95 2.36s.77 2.37 1.95 2.37zm4.19.83v-6.4h1.04v1.05h.03c.21-.7.83-1.15 1.6-1.15.2 0 .36.03.45.04v1.04a2.32 2.32 0 00-.6-.06c-.85 0-1.41.6-1.41 1.5v3.98h-1.11zm10.35 0h-1.15V77h-2.9v-1h6.96v1h-2.9v7.87zm9.4-6.4v6.4h-1.06v-1.04h-.02c-.4.74-1.09 1.15-2.1 1.15-1.46 0-2.3-.9-2.3-2.36v-4.14h1.1v3.95c0 1.04.51 1.6 1.54 1.6 1.08 0 1.73-.71 1.73-1.8v-3.75h1.1zm-3.93-1a.7.7 0 01-.7-.67.7.7 0 01.7-.68c.38 0 .7.3.7.68a.7.7 0 01-.7.67zm2.37 0a.7.7 0 01-.7-.67.7.7 0 01.7-.68c.38 0 .7.3.7.68a.7.7 0 01-.7.67zm3 7.4v-6.4h1.04v1.05h.03c.21-.7.82-1.15 1.6-1.15.2 0 .36.03.45.04v1.04a2.32 2.32 0 00-.6-.06c-.85 0-1.42.6-1.42 1.5v3.98h-1.1zm9.47-6.4v6.4h-1.05v-1.04h-.03c-.4.74-1.08 1.15-2.1 1.15-1.45 0-2.3-.9-2.3-2.36v-4.14h1.1v3.95c0 1.04.51 1.6 1.54 1.6 1.08 0 1.73-.71 1.73-1.8v-3.75H90zm-3.93-1a.7.7 0 01-.7-.67.7.7 0 01.7-.68c.38 0 .7.3.7.68a.7.7 0 01-.7.67zm2.37 0a.7.7 0 01-.7-.67.7.7 0 01.7-.68c.39 0 .7.3.7.68a.7.7 0 01-.7.67zM232.14 84.89H231V76h5.56v1h-4.42v3.05h4.06v.99h-4.06v3.85zm5.6 0v-6.4h1.11v6.4h-1.1zm.56-7.49a.68.68 0 01-.69-.66c0-.37.32-.67.69-.67.38 0 .7.3.7.67 0 .36-.32.66-.7.66zm2.1 7.49V76h1.1v8.89h-1.1zm2.95-7.95h1.1v1.54h1.29v.88h-1.28v3.81c0 .59.25.85.82.85.12 0 .38-.02.45-.03v.9c-.13.03-.44.05-.7.05-1.2 0-1.68-.48-1.68-1.71v-3.87h-.98v-.88h.98v-1.54zm3.56 7.95v-6.4h1.04v1.04h.03c.22-.7.83-1.16 1.6-1.16.19 0 .36.03.44.04v1.05a2.29 2.29 0 00-.59-.07c-.85 0-1.41.6-1.41 1.5v4h-1.1zm6.66-5.59c-1.04 0-1.76.77-1.83 1.84h3.58c-.02-1.07-.71-1.84-1.75-1.84zm1.73 3.75h1.08c-.19 1.12-1.3 1.95-2.74 1.95-1.9 0-3.04-1.28-3.04-3.29 0-1.99 1.16-3.34 2.98-3.34 1.79 0 2.89 1.26 2.89 3.2v.4h-4.74v.07c0 1.22.74 2.03 1.93 2.03.84 0 1.45-.41 1.64-1.02zm2.33 1.84V76h1.1v8.89h-1.1zm5.25-5.59c-1.04 0-1.76.77-1.83 1.84h3.59c-.03-1.07-.72-1.84-1.76-1.84zm1.73 3.75h1.09c-.2 1.12-1.31 1.95-2.75 1.95-1.9 0-3.04-1.28-3.04-3.29 0-1.99 1.17-3.34 2.99-3.34 1.78 0 2.88 1.26 2.88 3.2v.4h-4.74v.07c0 1.22.75 2.03 1.93 2.03.84 0 1.46-.41 1.64-1.02zm2.28 1.84v-6.4h1.04v1.04h.03c.21-.7.82-1.16 1.6-1.16.19 0 .35.03.44.04v1.05a2.29 2.29 0 00-.59-.07c-.86 0-1.42.6-1.42 1.5v4h-1.1zM37.95 256.97h-1.16c-.3-1.17-1.34-1.94-2.65-1.94-1.8 0-2.96 1.41-2.96 3.59 0 2.2 1.15 3.6 2.96 3.6 1.35 0 2.32-.64 2.65-1.73h1.16c-.4 1.63-1.58 2.6-3.36 2.74l-.3.67c.82.02 1.36.36 1.36 1 0 .7-.66 1.09-1.49 1.1-.37 0-.79-.04-.95-.09v-.63c.14.03.52.07.8.07.52 0 .8-.16.8-.44 0-.29-.28-.4-.93-.4h-.44v-.43l.34-.85c-2.32-.16-3.78-1.91-3.78-4.61 0-2.8 1.62-4.62 4.14-4.62 2 0 3.51 1.18 3.8 2.97zm3.35 5.32c1.05 0 1.85-.71 1.85-1.64v-.53l-1.77.1c-.89.06-1.4.45-1.4 1.05 0 .62.53 1.02 1.32 1.02zm-.24.92c-1.32 0-2.2-.78-2.2-1.94 0-1.1.87-1.8 2.4-1.88l1.89-.1v-.55c0-.78-.54-1.25-1.45-1.25-.85 0-1.39.39-1.53 1.02H39.1c.08-1.12 1.06-1.97 2.62-1.97s2.54.81 2.54 2.1v4.46H43.2v-1.11h-.03a2.42 2.42 0 01-2.12 1.22zm4.66-.11v-8.95h1.1v8.95h-1.1zm2.66 0v-6.45h1.1v6.45h-1.1zm4.67-3.8l1.03.24c1.33.33 1.82.8 1.82 1.75 0 1-.87 1.75-2.17 1.9l-.31.71c.82.02 1.36.36 1.36 1 0 .7-.66 1.09-1.49 1.1-.37 0-.79-.04-.95-.09v-.63c.14.03.52.07.8.07.52 0 .8-.16.8-.44 0-.29-.28-.4-.93-.4h-.45v-.43l.37-.88c-1.28-.12-2.13-.85-2.24-1.9h1.1c.13.67.65 1.03 1.54 1.03.9 0 1.45-.37 1.45-.96 0-.46-.27-.7-1.01-.9l-1.17-.29c-1.16-.29-1.73-.87-1.73-1.75 0-1.1 1-1.9 2.46-1.9 1.37 0 2.38.8 2.43 1.9H54.7c-.07-.63-.59-1.01-1.4-1.01-.81 0-1.35.39-1.35.95 0 .45.35.75 1.1.93zm6.18 3c1.04 0 1.84-.72 1.84-1.65v-.53l-1.77.1c-.89.06-1.4.45-1.4 1.05 0 .62.53 1.02 1.33 1.02zm-.25.9c-1.32 0-2.2-.77-2.2-1.93 0-1.1.87-1.8 2.4-1.88l1.89-.1v-.55c0-.78-.53-1.25-1.45-1.25-.85 0-1.39.39-1.53 1.02h-1.07c.08-1.12 1.06-1.97 2.62-1.97s2.54.81 2.54 2.1v4.46h-1.05v-1.11h-.03a2.42 2.42 0 01-2.12 1.22zm4.6-.1v-6.45h1.05v1.03h.02c.37-.7 1.08-1.14 2.1-1.14 1.45 0 2.3.9 2.3 2.37v4.19h-1.12v-4c0-1.04-.5-1.6-1.52-1.6-1.04 0-1.72.71-1.72 1.8v3.8h-1.1zm13.18 0H75.6v-7.95h-2.9v-1h6.94v1h-2.9v7.95zm9.36-6.45v6.45h-1.05v-1.05h-.02c-.4.74-1.08 1.16-2.1 1.16-1.45 0-2.3-.91-2.3-2.38v-4.18h1.11v4c0 1.04.5 1.6 1.53 1.6 1.08 0 1.72-.72 1.72-1.81v-3.8h1.11zm-3.92-1.01a.7.7 0 01-.7-.69.7.7 0 01.7-.68c.38 0 .7.3.7.68a.7.7 0 01-.7.69zm2.37 0a.7.7 0 01-.7-.69.7.7 0 01.7-.68c.38 0 .7.3.7.68a.7.7 0 01-.7.69zm2.98 7.46v-6.45h1.05v1.05h.02c.22-.71.83-1.16 1.6-1.16.2 0 .36.03.45.04v1.05a2.28 2.28 0 00-.6-.06c-.85 0-1.41.6-1.41 1.5v4.03h-1.1zm9.45-6.45v6.45h-1.05v-1.05h-.03c-.39.74-1.08 1.16-2.1 1.16-1.44 0-2.28-.91-2.28-2.38v-4.18h1.1v4c0 1.04.5 1.6 1.53 1.6 1.07 0 1.72-.72 1.72-1.81v-3.8H97zm-3.92-1.01a.7.7 0 01-.7-.69.7.7 0 01.7-.68c.38 0 .7.3.7.68a.7.7 0 01-.7.69zm2.37 0a.7.7 0 01-.7-.69.7.7 0 01.7-.68c.38 0 .7.3.7.68a.7.7 0 01-.7.69z"/><path fill="#F5F5F5" d="M30 188a3 3 0 013-3h174a3 3 0 013 3v40a3 3 0 01-3 3H33a3 3 0 01-3-3v-40z"/><path fill="#E9E9E9" fill-rule="nonzero" d="M44 202h89v12H44zM44 292h107v12H44z" opacity=".7"/><path fill="#F5F5F5" d="M230 188a3 3 0 013-3h174a3 3 0 013 3v40a3 3 0 01-3 3H233a3 3 0 01-3-3v-40z"/><path fill="#E9E9E9" fill-rule="nonzero" d="M245 202h89v12h-89z" opacity=".7"/><path fill="#999" fill-rule="nonzero" d="M34.49 174.06H31V165h3.5c1.58 0 2.65.9 2.65 2.26 0 .94-.7 1.82-1.6 1.98v.05c1.26.16 2.07 1.02 2.07 2.23 0 1.6-1.17 2.54-3.13 2.54zM32.15 166v2.9h1.73c1.36 0 2.1-.53 2.1-1.5 0-.9-.62-1.4-1.74-1.4h-2.09zm0 7.06h2.16c1.4 0 2.12-.55 2.12-1.6s-.75-1.58-2.22-1.58h-2.06v3.18zm8.8.18c1.04 0 1.85-.72 1.85-1.66v-.53l-1.78.1c-.9.06-1.4.45-1.4 1.06 0 .63.52 1.03 1.32 1.03zm-.26.93c-1.32 0-2.2-.78-2.2-1.96 0-1.11.87-1.82 2.4-1.9l1.91-.11v-.55c0-.8-.54-1.27-1.46-1.27-.86 0-1.4.4-1.53 1.03h-1.08c.08-1.13 1.06-2 2.64-2 1.56 0 2.54.84 2.54 2.14v4.51h-1.05v-1.12h-.03a2.43 2.43 0 01-2.14 1.23zm6.72-3.95l1.03.24c1.35.34 1.83.81 1.83 1.77 0 1.02-.87 1.77-2.17 1.92l-.32.73c.83.01 1.37.36 1.37 1 0 .72-.67 1.1-1.5 1.12-.37 0-.8-.04-.96-.09v-.64c.14.03.53.08.8.08.53 0 .81-.17.81-.46 0-.28-.28-.4-.93-.4h-.45v-.43l.37-.9c-1.28-.11-2.15-.86-2.26-1.92h1.12c.12.68.64 1.04 1.55 1.04.9 0 1.45-.37 1.45-.96 0-.47-.27-.72-1.02-.92l-1.17-.29c-1.17-.3-1.75-.89-1.75-1.78 0-1.12 1.02-1.91 2.49-1.91 1.37 0 2.38.8 2.43 1.9h-1.06c-.08-.62-.6-1.01-1.41-1.01-.82 0-1.35.4-1.35.97 0 .45.35.75 1.1.94zm4.07 3.84V165h1.12v9.06h-1.12zm4.82-.82c1.05 0 1.85-.72 1.85-1.66v-.53l-1.78.1c-.9.06-1.4.45-1.4 1.06 0 .63.53 1.03 1.33 1.03zm-.25.93c-1.33 0-2.22-.78-2.22-1.96 0-1.11.88-1.82 2.41-1.9l1.91-.11v-.55c0-.8-.54-1.27-1.46-1.27-.85 0-1.4.4-1.53 1.03h-1.08c.08-1.13 1.06-2 2.64-2 1.56 0 2.55.84 2.55 2.14v4.51H58.2v-1.12h-.03a2.43 2.43 0 01-2.13 1.23zm4.63-.1v-6.54h1.05v1.04h.02c.38-.7 1.09-1.15 2.12-1.15 1.46 0 2.3.92 2.3 2.4v4.24h-1.11v-4.04c0-1.06-.5-1.64-1.53-1.64-1.05 0-1.74.73-1.74 1.84v3.84h-1.11zm9.61-.92c1.16 0 1.93-.94 1.93-2.38s-.77-2.4-1.93-2.4c-1.14 0-1.9.94-1.9 2.4s.76 2.38 1.9 2.38zm.04 3.37c-1.47 0-2.62-.8-2.81-1.92h1.15c.21.6.87 1 1.7 1 1.16 0 1.85-.66 1.85-1.63v-1.03h-.02a2.42 2.42 0 01-2.13 1.17c-1.7 0-2.81-1.31-2.81-3.34 0-2.05 1.11-3.35 2.83-3.35.94 0 1.72.45 2.17 1.2h.01v-1.09h1.07v6.4c0 1.56-1.17 2.6-3.01 2.6zm4.51-2.46v-6.53h1.11v6.53h-1.1zm7.07-2.1H83c-.15 1.16-1.06 2.02-2.34 2.18l-.32.74c.84.01 1.37.36 1.37 1 0 .72-.66 1.1-1.5 1.12-.36 0-.79-.04-.95-.09v-.64c.14.03.53.08.8.08.53 0 .8-.17.8-.46 0-.28-.27-.4-.93-.4h-.44v-.43l.36-.9c-1.64-.16-2.72-1.4-2.72-3.36 0-2.06 1.22-3.38 3.06-3.38 1.66 0 2.66 1.08 2.8 2.25h-1.1c-.15-.7-.71-1.3-1.7-1.3-1.14 0-1.93.94-1.93 2.43 0 1.52.8 2.41 1.95 2.41.9 0 1.5-.47 1.7-1.25zM234.49 174.06H231V165h3.5c1.58 0 2.65.9 2.65 2.26 0 .94-.7 1.82-1.6 1.98v.05c1.26.16 2.07 1.02 2.07 2.23 0 1.6-1.17 2.54-3.13 2.54zm-2.34-8.06v2.9h1.73c1.36 0 2.1-.53 2.1-1.5 0-.9-.62-1.4-1.74-1.4h-2.09zm0 7.06h2.17c1.38 0 2.11-.55 2.11-1.6s-.75-1.58-2.22-1.58h-2.06v3.18zm6.66 1v-6.53h1.11v6.53h-1.11zm.56-7.63c-.38 0-.7-.3-.7-.68 0-.37.32-.67.7-.67.38 0 .7.3.7.67a.7.7 0 01-.7.68zm2.42-.48h1.1v1.58h1.3v.9h-1.3v3.88c0 .6.27.87.84.87.12 0 .38-.02.46-.04v.92c-.14.03-.45.05-.7.05-1.23 0-1.7-.49-1.7-1.74v-3.94h-1v-.9h1v-1.58zm3.64 8.11v-6.53h1.12v6.53h-1.12zm.56-7.63c-.38 0-.69-.3-.69-.68 0-.37.31-.67.7-.67.38 0 .69.3.69.67a.7.7 0 01-.7.68zm4.15 3.79l1.03.24c1.34.34 1.83.81 1.83 1.77 0 1.02-.88 1.77-2.18 1.92l-.32.73c.84.01 1.37.36 1.37 1 0 .72-.66 1.1-1.5 1.12-.37 0-.79-.04-.95-.09v-.64c.14.03.53.08.8.08.53 0 .8-.17.8-.46 0-.28-.27-.4-.93-.4h-.44v-.43l.36-.9c-1.28-.11-2.14-.86-2.25-1.92h1.11c.12.68.65 1.04 1.55 1.04s1.46-.37 1.46-.96c0-.47-.28-.72-1.02-.92l-1.18-.29c-1.17-.3-1.74-.89-1.74-1.78 0-1.12 1.01-1.91 2.48-1.91 1.38 0 2.39.8 2.44 1.9h-1.06c-.08-.62-.6-1.01-1.42-1.01-.81 0-1.35.4-1.35.97 0 .45.35.75 1.1.94z"/><path d="M175 200h16v16h-16z"/><path fill="#515A67" fill-rule="nonzero" d="M189.56 201.78c.78.02 1.42.65 1.42 1.43v11.32c0 .8-.66 1.44-1.47 1.44h-13.05c-.8 0-1.46-.65-1.46-1.44v-11.32c0-.78.64-1.4 1.42-1.43v1.93c0 .87.73 1.58 1.62 1.58h1.02c.9 0 1.63-.7 1.63-1.58v-1.94h4.6v1.94c0 .87.73 1.58 1.63 1.58h1.02c.9 0 1.62-.7 1.62-1.58v-1.93zm-8.79 7.03v1.27c0 .2-.16.36-.37.36h-1.3a.37.37 0 01-.36-.36v-1.27c0-.2.16-.36.37-.36h1.3c.2 0 .36.16.36.36zm3.24 0v1.27c0 .2-.17.36-.37.36h-1.3a.37.37 0 01-.37-.36v-1.27c0-.2.17-.36.37-.36h1.3c.2 0 .37.16.37.36zm3.23 0v1.27c0 .2-.16.36-.37.36h-1.3a.37.37 0 01-.36-.36v-1.27c0-.2.16-.36.37-.36h1.3c.2 0 .36.16.36.36zm-6.47 3.16v1.27c0 .2-.16.36-.37.36h-1.3a.37.37 0 01-.36-.36v-1.27c0-.2.16-.36.37-.36h1.3c.2 0 .36.16.36.36zm3.24 0v1.27c0 .2-.17.36-.37.36h-1.3a.37.37 0 01-.37-.36v-1.27c0-.2.17-.36.37-.36h1.3c.2 0 .37.16.37.36zm3.23 0v1.27c0 .2-.16.36-.37.36h-1.3a.37.37 0 01-.36-.36v-1.27c0-.2.16-.36.37-.36h1.3c.2 0 .36.16.36.36zm1.84 1.86v-5.85a.63.63 0 00-.63-.62H177.5a.63.63 0 00-.63.62v5.85c0 .34.28.62.63.62h10.95c.35 0 .63-.28.63-.62zm-11.04-9.58a.55.55 0 01-.56-.54v-3.17c0-.3.25-.54.56-.54h1c.31 0 .56.24.56.54v3.17c0 .3-.25.54-.55.54h-1.01zm8.86 0a.55.55 0 01-.55-.54v-3.17c0-.3.25-.54.55-.54h1.01c.31 0 .56.24.56.54v3.17c0 .3-.25.54-.56.54h-1z"/><path d="M384 200h16v16h-16z"/><path fill="#515A67" fill-rule="nonzero" d="M398.56 201.78c.78.02 1.42.65 1.42 1.43v11.32c0 .8-.66 1.44-1.47 1.44h-13.05c-.8 0-1.46-.65-1.46-1.44v-11.32c0-.78.64-1.4 1.42-1.43v1.93c0 .87.73 1.58 1.62 1.58h1.02c.9 0 1.63-.7 1.63-1.58v-1.94h4.6v1.94c0 .87.73 1.58 1.63 1.58h1.02c.9 0 1.62-.7 1.62-1.58v-1.93zm-8.79 7.03v1.27c0 .2-.16.36-.37.36h-1.3a.37.37 0 01-.36-.36v-1.27c0-.2.16-.36.37-.36h1.3c.2 0 .36.16.36.36zm3.24 0v1.27c0 .2-.17.36-.37.36h-1.3a.37.37 0 01-.37-.36v-1.27c0-.2.17-.36.37-.36h1.3c.2 0 .37.16.37.36zm3.23 0v1.27c0 .2-.16.36-.37.36h-1.3a.37.37 0 01-.36-.36v-1.27c0-.2.16-.36.37-.36h1.3c.2 0 .36.16.36.36zm-6.47 3.16v1.27c0 .2-.16.36-.37.36h-1.3a.37.37 0 01-.36-.36v-1.27c0-.2.16-.36.37-.36h1.3c.2 0 .36.16.36.36zm3.24 0v1.27c0 .2-.17.36-.37.36h-1.3a.37.37 0 01-.37-.36v-1.27c0-.2.17-.36.37-.36h1.3c.2 0 .37.16.37.36zm3.23 0v1.27c0 .2-.16.36-.37.36h-1.3a.37.37 0 01-.36-.36v-1.27c0-.2.16-.36.37-.36h1.3c.2 0 .36.16.36.36zm1.84 1.86v-5.85a.63.63 0 00-.63-.62H386.5a.63.63 0 00-.63.62v5.85c0 .34.28.62.63.62h10.95c.35 0 .63-.28.63-.62zm-11.04-9.58a.55.55 0 01-.56-.54v-3.17c0-.3.25-.54.56-.54h1c.31 0 .56.24.56.54v3.17c0 .3-.25.54-.55.54h-1.01zm8.86 0a.55.55 0 01-.55-.54v-3.17c0-.3.25-.54.55-.54h1.01c.31 0 .56.24.56.54v3.17c0 .3-.25.54-.56.54h-1z"/><rect width="120" height="40" x="291" y="277" fill="#376BFB" rx="3"/><path fill="#FCFCFC" fill-rule="nonzero" d="M333.93 291.97c2.84 0 4.62 1.96 4.62 5.1 0 3.14-1.78 5.1-4.62 5.1s-4.62-1.96-4.62-5.1c0-3.14 1.78-5.1 4.62-5.1zm0 1.35c-1.87 0-3.06 1.45-3.06 3.75s1.19 3.75 3.06 3.75 3.05-1.45 3.05-3.75-1.18-3.75-3.05-3.75zm5.95 8.68v-9.86h1.48V302h-1.48zm9.16-7.2v7.2h-1.41v-1.22h-.03c-.4.86-1.13 1.35-2.23 1.35-1.57 0-2.53-1.02-2.53-2.67v-4.65h1.48v4.37c0 1.1.52 1.68 1.54 1.68 1.07 0 1.7-.74 1.7-1.86v-4.2h1.48zm3.87 2.89l1.21.28c1.45.35 2 .9 2 1.95 0 1.18-.98 2.03-2.45 2.19l-.33.73c.85 0 1.4.4 1.4 1.1 0 .8-.68 1.23-1.63 1.24-.4 0-.82-.04-1-.1v-.74c.15.03.54.08.82.08.54 0 .82-.16.82-.45 0-.3-.28-.42-.94-.42h-.46v-.54l.37-.9c-1.47-.12-2.42-.96-2.53-2.17h1.46c.12.69.65 1.07 1.55 1.07.89 0 1.44-.37 1.44-.95 0-.46-.28-.71-1.03-.9l-1.28-.32c-1.3-.31-1.96-.99-1.96-2 0-1.28 1.14-2.16 2.82-2.16 1.6 0 2.72.9 2.77 2.17h-1.4c-.06-.65-.59-1.05-1.41-1.05-.8 0-1.34.39-1.34.96 0 .44.36.74 1.1.93zm4.79-4.58h1.48v1.7h1.37v1.17h-1.37v3.96c0 .62.28.9.88.9.15 0 .39 0 .48-.03v1.17c-.16.04-.49.07-.82.07-1.45 0-2.02-.56-2.02-1.94v-4.13h-1.05v-1.17h1.05v-1.7zm10.23 1.7V302h-1.42v-1.22h-.03c-.4.86-1.13 1.35-2.23 1.35-1.57 0-2.52-1.02-2.52-2.67v-4.65h1.47v4.37c0 1.1.52 1.68 1.54 1.68 1.07 0 1.7-.74 1.7-1.86v-4.2h1.49zm1.45 7.19v-7.2h1.41v1.23h.03c.24-.84.89-1.34 1.73-1.34.22 0 .4.04.51.06v1.37a2.11 2.11 0 00-.66-.08c-.95 0-1.54.63-1.54 1.65V302h-1.48z"/><path d="M30 27h16v16H30z"/><path fill="#515A67" fill-rule="nonzero" d="M44.22 27H31.78c-.98 0-1.78.8-1.78 1.78v12.44c0 .98.8 1.78 1.78 1.78h12.44c.98 0 1.78-.8 1.78-1.78V28.78c0-.98-.8-1.78-1.78-1.78zm-8.89 12.44h-1.77v-6.22h1.77v6.22zm3.56 0H37.1v-8.88h1.78v8.88zm3.55 0h-1.77V35.9h1.77v3.55z"/><g><g transform="translate(200 52)"><use fill="#000" filter="url(#c)" xlink:href="#d"/><path fill="#FFF" stroke="#E9EFF2" stroke-linejoin="square" stroke-width="1.137" d="M5 .57A4.43 4.43 0 00.57 5v134A4.43 4.43 0 005 143.43h290a4.43 4.43 0 004.43-4.43V5A4.43 4.43 0 00295 .57H5z"/></g><g transform="translate(225 92)"><path fill="#E2E7EC" fill-rule="nonzero" d="M32 0a32 32 0 100 64 32 32 0 000-64m0 4a28 28 0 110 56 28 28 0 010-56" opacity=".25"/><mask id="f" fill="#fff"><use xlink:href="#e"/></mask><path fill="#B1B9C2" d="M32-1h36v33H32z" mask="url(#f)"/></g><path fill="#515A67" fill-rule="nonzero" d="M311.7 105.4v4.03h2.3c1.33 0 2.11-.76 2.11-2.02 0-1.23-.82-2.02-2.14-2.02h-2.26zm0 5.96V116h-2.65v-12.68h5.2c2.92 0 4.59 1.54 4.59 4.04 0 1.63-.85 3.03-2.3 3.6l2.67 5.04h-3.01l-2.36-4.64h-2.13zm12.25 2.93c1.12 0 2.04-.72 2.04-1.74v-.69l-1.99.12c-.95.07-1.5.5-1.5 1.17 0 .7.58 1.14 1.45 1.14zm-.84 1.86c-1.8 0-3.16-1.16-3.16-2.86 0-1.71 1.32-2.7 3.67-2.84l2.37-.15v-.62c0-.88-.61-1.39-1.58-1.39-.96 0-1.57.48-1.69 1.17h-2.35c.1-1.83 1.66-3.08 4.15-3.08 2.42 0 4 1.24 4 3.14V116h-2.48v-1.44h-.06c-.52 1-1.7 1.59-2.87 1.59zm12.56-9.72c2.39 0 3.86 1.82 3.86 4.86 0 3.03-1.46 4.86-3.82 4.86a3.09 3.09 0 01-2.92-1.73h-.06v4.66h-2.56v-12.5h2.53v1.64h.05a3.07 3.07 0 012.92-1.8zm-.86 7.65c1.28 0 2.09-1.08 2.09-2.8 0-1.7-.81-2.8-2.1-2.8-1.25 0-2.08 1.12-2.08 2.8 0 1.71.83 2.8 2.09 2.8zm10.36 2.12c-2.85 0-4.67-1.83-4.67-4.92 0-3.05 1.85-4.9 4.67-4.9s4.67 1.84 4.67 4.9c0 3.1-1.82 4.92-4.67 4.92zm0-1.96c1.26 0 2.06-1.06 2.06-2.95 0-1.87-.81-2.95-2.06-2.95s-2.07 1.08-2.07 2.95c0 1.89.8 2.95 2.07 2.95zm5.98 1.76v-9.42h2.48v1.7h.06c.33-1.2 1.13-1.85 2.24-1.85.3 0 .55.04.73.1v2.25a2.64 2.64 0 00-.94-.15c-1.26 0-2 .78-2 2.1V116h-2.57zm14.44.2c-2.85 0-4.67-1.83-4.67-4.92 0-3.05 1.84-4.9 4.67-4.9 2.82 0 4.66 1.84 4.66 4.9 0 3.1-1.82 4.92-4.66 4.92zm0-1.96c1.25 0 2.05-1.06 2.05-2.95 0-1.87-.8-2.95-2.05-2.95-1.25 0-2.07 1.08-2.07 2.95 0 1.89.8 2.95 2.07 2.95zm6.04 1.76v-12.68h2.57V116h-2.57zm13-9.42V116h-2.48v-1.7h-.05c-.47 1.19-1.4 1.88-2.82 1.88-2.04 0-3.4-1.33-3.4-3.53v-6.07h2.57v5.54c0 1.25.63 1.92 1.76 1.92 1.14 0 1.86-.82 1.86-2.07v-5.4h2.56zm5.21 3.58l1.8.4c1.9.41 2.66 1.16 2.66 2.57 0 1.66-1.36 2.8-3.44 3.03l-.37.8c1 .02 1.66.55 1.66 1.45 0 1.06-.85 1.62-2.18 1.63a4.5 4.5 0 01-1.25-.12v-1.07c.21.06.64.1.98.1.66 0 .98-.16.98-.47 0-.36-.3-.48-1.08-.48h-.56v-.87l.43-.95c-2.13-.19-3.43-1.35-3.56-3.03h2.5c.12.8.75 1.25 1.77 1.25.97 0 1.56-.39 1.56-1 0-.48-.31-.74-1.16-.94l-1.74-.39c-1.78-.4-2.7-1.33-2.7-2.72 0-1.8 1.56-2.97 3.98-2.97 2.36 0 3.9 1.2 3.93 3.02h-2.36c-.05-.76-.66-1.22-1.6-1.22-.9 0-1.48.4-1.48 1 0 .47.4.8 1.23.98zm6.42-5.75h2.57v2.17h1.74v1.93h-1.74v4.51c0 .72.35 1.06 1.1 1.06.23 0 .47-.01.63-.04v1.89c-.27.06-.7.1-1.22.1-2.22 0-3.08-.73-3.08-2.57v-4.95h-1.33v-1.93h1.33v-2.17zm14.41 2.17V116h-2.47v-1.7h-.06c-.46 1.19-1.4 1.88-2.82 1.88-2.04 0-3.4-1.33-3.4-3.53v-6.07h2.58v5.54c0 1.25.62 1.92 1.75 1.92 1.15 0 1.86-.82 1.86-2.07v-5.4h2.56zm1.67 9.42v-9.42h2.48v1.7h.06c.33-1.2 1.13-1.85 2.24-1.85.3 0 .55.04.73.1v2.25a2.64 2.64 0 00-.94-.15c-1.26 0-2 .78-2 2.1V116h-2.57zm15.25-9.42V116h-2.48v-1.7h-.05c-.46 1.19-1.4 1.88-2.82 1.88-2.04 0-3.4-1.33-3.4-3.53v-6.07h2.57v5.54c0 1.25.63 1.92 1.76 1.92 1.14 0 1.86-.82 1.86-2.07v-5.4h2.56zm1.73 9.42v-12.68h2.57V116h-2.57zm13-9.42V116h-2.48v-1.7h-.05c-.46 1.19-1.4 1.88-2.82 1.88-2.04 0-3.4-1.33-3.4-3.53v-6.07h2.57v5.54c0 1.25.63 1.92 1.76 1.92 1.14 0 1.86-.82 1.86-2.07v-5.4h2.56zm2.88 12.9c-.1 0-.89 0-.97-.02v-1.97c.08.01.55.01.64.01.94 0 1.4-.3 1.58-1.04 0-.04.1-.42.08-.45l-3.28-9.43h2.83l2 7.36h.04l2-7.36h2.71l-3.24 9.63c-.8 2.42-1.98 3.28-4.4 3.28zm12.63-3.28c-2.85 0-4.67-1.83-4.67-4.92 0-3.05 1.85-4.9 4.67-4.9s4.66 1.84 4.66 4.9c0 3.1-1.82 4.92-4.66 4.92zm0-1.96c1.25 0 2.05-1.06 2.05-2.95 0-1.87-.8-2.95-2.05-2.95-1.25 0-2.07 1.08-2.07 2.95 0 1.89.8 2.95 2.07 2.95zm5.98 1.76v-9.42h2.48v1.7h.05c.34-1.2 1.14-1.85 2.24-1.85.3 0 .56.04.73.1v2.25a2.64 2.64 0 00-.93-.15c-1.26 0-2 .78-2 2.1V116h-2.57zm8 .09c-.56 0-1-.44-1-1 0-.57.44-1 1-1s1 .43 1 1c0 .56-.44 1-1 1z"/><path fill="#626A76" fill-rule="nonzero" d="M316.93 142.58V144h-7.7v-12.68h1.58v11.26h6.12zm9-7.72V144h-1.44v-1.49h-.04c-.54 1.06-1.5 1.65-2.9 1.65-2 0-3.16-1.3-3.16-3.37v-5.93h1.53v5.66c0 1.48.7 2.28 2.1 2.28 1.5 0 2.39-1.01 2.39-2.57v-5.37h1.53zm-5.4-1.43a.97.97 0 01-.97-.97c0-.54.44-.97.96-.97a.97.97 0 010 1.93zm3.26 0a.97.97 0 01-.96-.97c0-.54.44-.97.96-.97a.97.97 0 010 1.93zm4.62-.78h1.53v2.2h1.77v1.27h-1.77v5.43c0 .83.35 1.21 1.13 1.21.18 0 .53-.03.63-.04V144c-.18.04-.6.07-.96.07-1.68 0-2.33-.69-2.33-2.44v-5.51h-1.36v-1.26h1.36v-2.2zm5.42 11.35v-7.88h-1.27v-1.26h1.27v-1.02c0-1.76.82-2.6 2.5-2.6.35 0 .72.04.94.08v1.24a5.1 5.1 0 00-.7-.06c-.82 0-1.22.44-1.22 1.35v1h1.87v1.27h-1.86V144h-1.53zm8.2-7.97c-1.43 0-2.43 1.1-2.53 2.62h4.97c-.04-1.53-1-2.62-2.44-2.62zm2.4 5.35h1.5c-.26 1.6-1.8 2.78-3.8 2.78-2.62 0-4.21-1.82-4.21-4.7 0-2.83 1.62-4.76 4.14-4.76 2.47 0 3.99 1.8 3.99 4.56v.58h-6.56v.1c0 1.74 1.03 2.9 2.67 2.9 1.16 0 2.02-.6 2.27-1.46zm3.16 2.62v-9.14h1.44v1.46h.03c.51-.99 1.49-1.62 2.9-1.62 2 0 3.17 1.3 3.17 3.37V144h-1.53v-5.66c0-1.48-.7-2.29-2.1-2.29-1.44 0-2.38 1.02-2.38 2.57V144h-1.53zm18.2 0h-4.8v-12.68h4.82c2.17 0 3.63 1.26 3.63 3.16 0 1.32-.96 2.55-2.18 2.77v.07c1.72.22 2.83 1.43 2.83 3.12 0 2.23-1.6 3.56-4.3 3.56zm-3.21-11.29v4.07h2.37c1.88 0 2.9-.74 2.9-2.11 0-1.26-.87-1.96-2.4-1.96h-2.87zm0 9.9h2.97c1.9 0 2.91-.78 2.91-2.25s-1.04-2.21-3.06-2.21h-2.82v4.45zm12.73-6.58c-1.44 0-2.44 1.1-2.53 2.62h4.96c-.03-1.53-1-2.62-2.43-2.62zm2.4 5.35h1.5c-.26 1.6-1.81 2.78-3.8 2.78-2.63 0-4.22-1.82-4.22-4.7 0-2.83 1.62-4.76 4.14-4.76 2.47 0 4 1.8 4 4.56v.58h-6.56v.1c0 1.74 1.02 2.9 2.67 2.9 1.16 0 2.01-.6 2.27-1.46zm4.76-2.46l4.04-4.06h1.86l-3.97 3.95 4.09 5.19h-1.78l-3.39-4.25-.85.8V144h-1.53v-12.68h1.53v7.6zm7.2 5.08v-12.68h1.54V144h-1.53zm7.27-7.97c-1.44 0-2.44 1.1-2.53 2.62h4.96c-.03-1.53-1-2.62-2.43-2.62zm2.4 5.35h1.5c-.26 1.6-1.81 2.78-3.8 2.78-2.63 0-4.22-1.82-4.22-4.7 0-2.83 1.62-4.76 4.14-4.76 2.47 0 4 1.8 4 4.56v.58h-6.56v.1c0 1.74 1.02 2.9 2.67 2.9 1.16 0 2.01-.6 2.27-1.46zm3.9 6.04a4 4 0 01-.65-.05v-1.29c.16.04.4.05.6.05.85 0 1.32-.42 1.67-1.48l.22-.64-3.38-9.15h1.63l2.54 7.61h.02l2.53-7.61h1.61l-3.6 9.78c-.77 2.14-1.53 2.78-3.18 2.78zm8.08-3.42v-9.14h1.52V144h-1.52zm.76-10.68a.95.95 0 010-1.9c.53 0 .96.42.96.95 0 .52-.43.95-.96.95zm2.83 10.68v-9.14h1.44v1.46h.04c.5-.99 1.48-1.62 2.9-1.62 2 0 3.16 1.3 3.16 3.37V144h-1.53v-5.66c0-1.48-.7-2.29-2.1-2.29-1.44 0-2.38 1.02-2.38 2.57V144h-1.53zm9.56 0v-9.14H426V144h-1.53zm.77-10.68a.95.95 0 010-1.9c.52 0 .96.42.96.95 0 .52-.44.95-.96.95zm2.63 10.68v-1.09l5.07-6.77v-.02h-5.06v-1.26h6.79v1.12l-5.03 6.74v.02h5.05V144h-6.82z"/></g></g></svg>