<svg xmlns="http://www.w3.org/2000/svg" width="71" height="77" viewBox="0 0 71 77">
    <g fill="none" fill-rule="evenodd" stroke="#162A4C" stroke-linecap="round" stroke-linejoin="round" stroke-width="4">
        <path fill="#FFF" d="M63.545 15h-19.11a5.454 5.454 0 0 0-3.834 1.574l-30 29.555a5.456 5.456 0 0 0-.003 7.713l19.555 19.554a5.456 5.456 0 0 0 7.712.003l29.556-30a5.454 5.454 0 0 0 1.574-3.834v-19.11A5.448 5.448 0 0 0 63.545 15z"/>
        <path d="M55.364 28.636v.028"/>
        <path fill="#FFF" d="M66.99 17.567L53.477 4.054a5.454 5.454 0 0 0-3.824-1.598L7.54 2.14a5.456 5.456 0 0 0-5.456 5.452v27.655a5.456 5.456 0 0 0 5.452 5.455l42.112-.314a5.454 5.454 0 0 0 3.824-1.599l13.513-13.513a5.448 5.448 0 0 0 .004-7.71z"/>
        <path fill="#F37071" d="M63.542 15h-19.11a5.454 5.454 0 0 0-3.834 1.574l-30 29.555a5.456 5.456 0 0 0-.003 7.713L30.15 73.396a5.456 5.456 0 0 0 7.712.003l29.556-30a5.454 5.454 0 0 0 1.573-3.834v-19.11A5.448 5.448 0 0 0 63.542 15z"/>
        <path d="M55.364 28.636v.028"/>
    </g>
</svg>
